<?xml version="1.0"?>
<svg width="700" height="700" xmlns="http://www.w3.org/2000/svg" xmlns:svg="http://www.w3.org/2000/svg" version="1.1">
 <title>d</title>

 <g class="layer">
  <title>Layer 1</title>
  <g id="svg_25">
   <path d="m359,8l-196,0c-42.56,0 -81.2,17.36 -109.2,45.36c-27.44,27.44 -44.8,66.08 -44.8,108.64c0,85.12 68.88,154 154,154l195.44,0c42.56,0 81.2,-17.36 109.2,-45.36s45.36,-66.64 45.36,-109.2c0,-84.56 -68.88,-153.44 -154,-153.44zm-5.6,294c-77.28,0 -140,-62.72 -140,-140s62.72,-140 140,-140s140,62.72 140,140s-62.72,140 -140,140z" id="svg_26"/>
  </g>
 </g>
</svg>